<svg width="21" height="12" viewBox="0 0 21 12" fill="none" xmlns="http://www.w3.org/2000/svg">
<g id="Frame" clip-path="url(#clip0_4492_1982)">
<path id="Vector" d="M20.3217 10.5411C20.268 10.4479 19.9355 9.69956 18.3353 8.16152C16.6602 6.55099 16.8852 6.81251 18.9029 4.02774C20.1317 2.33176 20.623 1.29605 20.4692 0.853278C20.323 0.431225 19.4192 0.542564 19.4192 0.542564L16.4139 0.560689C16.4139 0.560689 16.1914 0.529618 16.0252 0.631894C15.8639 0.732876 15.7601 0.965912 15.7601 0.965912C15.7601 0.965912 15.2839 2.27868 14.6488 3.39466C13.31 5.74961 12.7737 5.87389 12.5549 5.7276C12.0461 5.38711 12.1736 4.35787 12.1736 3.62769C12.1736 1.34524 12.5074 0.39368 11.5223 0.147699C11.1948 0.0661363 10.9548 0.0117614 10.1185 0.00269895C9.04591 -0.00895281 8.13709 0.00658289 7.6233 0.266806C7.28078 0.440288 7.01701 0.827385 7.17827 0.849394C7.37703 0.876582 7.82707 0.974974 8.06583 1.31158C8.37461 1.74529 8.36336 2.72144 8.36336 2.72144C8.36336 2.72144 8.54087 5.40782 7.94958 5.74184C7.5433 5.97099 6.987 5.50363 5.79317 3.36618C5.18187 2.2722 4.71934 1.06172 4.71934 1.06172C4.71934 1.06172 4.63058 0.836448 4.47182 0.716046C4.27931 0.569752 4.00929 0.523145 4.00929 0.523145L1.15158 0.54127C1.15158 0.54127 0.722795 0.554216 0.565284 0.747118C0.425274 0.919305 0.554033 1.27404 0.554033 1.27404C0.554033 1.27404 2.7917 6.6947 5.32438 9.42768C7.6483 11.9328 10.286 11.7684 10.286 11.7684H11.4811C11.4811 11.7684 11.8424 11.727 12.0261 11.5211C12.1961 11.3321 12.1899 10.9774 12.1899 10.9774C12.1899 10.9774 12.1661 9.31634 12.9112 9.07166C13.645 8.83085 14.5876 10.677 15.5864 11.3878C16.3414 11.925 16.9152 11.8072 16.9152 11.8072L19.5867 11.7684C19.5867 11.7684 20.9843 11.6791 20.3217 10.5411Z" fill="#333333"/>
</g>
<defs>
<clipPath id="clip0_4492_1982">
<rect width="20" height="12" fill="white" transform="translate(0.5)"/>
</clipPath>
</defs>
</svg>
